<svg version="1.1" viewBox="0 0 100 100" xmlns="http://www.w3.org/2000/svg">
	<rect y="3.8323e-7" width="100" height="100" rx="20" ry="20" fill="#4688f4" fill-rule="evenodd"/>
	<path d="m77.24 18.738h-5.0436v7.5654c0 1.4122-1.1096 2.5218-2.5218 2.5218h-10.087c-1.4122 0-2.5218-1.1096-2.5218-2.5218v-7.5654h-15.131v7.5654c0 1.4122-1.1096 2.5218-2.5218 2.5218h-10.087c-1.4122 0-2.5218-1.1096-2.5218-2.5218v-7.5654h-5.0436c-2.774 0-5.0436 2.2696-5.0436 5.0436v55.48c0 2.774 2.2696 5.0436 5.0436 5.0436h55.48c2.774 0 5.0436-2.2696 5.0436-5.0436v-55.48c0-2.774-2.2696-5.0436-5.0436-5.0436zm0 60.523h-55.48v-45.393h55.48zm-40.349-55.48h-5.0436v-10.087h5.0436zm30.262 0h-5.0436v-10.087h5.0436zm-25.218 20.174h-5.0436v-5.0436h5.0436zm10.087 0h-5.0436v-5.0436h5.0436zm10.087 0h-5.0436v-5.0436h5.0436zm10.087 0h-5.0436v-5.0436h5.0436zm-40.349 10.087h-5.0436v-5.0436h5.0436zm10.087 0h-5.0436v-5.0436h5.0436zm10.087 0h-5.0436v-5.0436h5.0436zm10.087 0h-5.0436v-5.0436h5.0436zm10.087 0h-5.0436v-5.0436h5.0436zm-40.349 10.087h-5.0436v-5.0436h5.0436zm10.087 0h-5.0436v-5.0436h5.0436zm10.087 0h-5.0436v-5.0436h5.0436zm10.087 0h-5.0436v-5.0436h5.0436zm10.087 0h-5.0436v-5.0436h5.0436zm-40.349 10.087h-5.0436v-5.0436h5.0436zm10.087 0h-5.0436v-5.0436h5.0436zm10.087 0h-5.0436v-5.0436h5.0436zm10.087 0h-5.0436v-5.0436h5.0436z" fill="#f9f9f9" fill-rule="evenodd"/>
</svg>
