<?xml version="1.0" standalone="no"?>
<!DOCTYPE svg PUBLIC "-//W3C//DTD SVG 20010904//EN"
 "http://www.w3.org/TR/2001/REC-SVG-20010904/DTD/svg10.dtd">
<svg version="1.0" xmlns="http://www.w3.org/2000/svg"
 width="700.000000pt" height="700.000000pt" viewBox="0 0 700.000000 700.000000"
 preserveAspectRatio="xMidYMid meet">
<metadata>
Created by potrace 1.11, written by Peter Selinger 2001-2013
</metadata>
<g transform="translate(0.000000,700.000000) scale(0.100000,-0.100000)"
fill="#000000" stroke="none">
<path d="M3430 6323 c-96 -119 -495 -612 -887 -1094 l-711 -878 95 -233 c52
-128 96 -234 98 -236 1 -2 305 448 675 1000 370 552 679 1010 687 1018 8 8 0
-15 -16 -52 -17 -38 -45 -98 -62 -135 -28 -63 -29 -68 -13 -80 38 -28 50 -16
104 102 29 63 54 114 56 113 1 -2 -13 -59 -31 -128 -19 -68 -33 -126 -31 -127
2 -2 17 -8 34 -12 37 -11 28 -31 99 234 l48 180 3 -237 2 -238 35 0 35 0 1
208 1 207 43 -160 c24 -88 47 -170 50 -182 3 -15 13 -23 28 -23 51 1 52 10 18
135 -17 65 -30 120 -28 122 2 2 26 -46 53 -107 50 -113 62 -124 99 -96 18 13
18 16 -12 82 -17 38 -43 96 -58 129 -14 33 -22 56 -17 50 12 -12 792 -1282
799 -1302 3 -8 -139 -193 -352 -458 -196 -245 -360 -447 -364 -450 -4 -2 -203
241 -441 540 -238 300 -436 545 -439 545 -4 0 -270 -328 -591 -729 -322 -401
-588 -726 -592 -722 -3 3 -106 225 -229 494 -122 268 -223 486 -224 485 -3 -3
-732 -1600 -742 -1625 -4 -9 21 -13 90 -15 l96 -3 -230 -522 c-126 -288 -229
-527 -229 -533 0 -6 34 -10 85 -10 47 0 85 -2 85 -5 0 -3 -124 -253 -275 -555
-151 -302 -275 -552 -275 -555 0 -3 628 -5 1395 -5 767 0 1395 2 1395 3 0 2
-123 253 -274 558 l-273 554 88 5 88 5 -233 530 -232 530 93 3 c51 1 93 5 93
8 0 3 -21 50 -46 104 -25 55 -43 103 -41 107 27 52 712 1161 715 1159 2 -2
-10 -30 -26 -62 -47 -93 -47 -99 -12 -114 17 -7 32 -11 33 -9 2 2 27 57 57
122 29 64 55 116 56 114 2 -2 -12 -61 -31 -130 -19 -70 -35 -129 -35 -131 0
-7 61 -18 66 -13 3 3 30 94 59 204 l54 198 0 -233 1 -233 38 3 37 3 3 205 4
205 48 -178 c26 -98 50 -181 53 -184 3 -2 20 -2 37 2 22 5 29 11 26 23 -22 73
-65 246 -62 249 1 2 27 -50 56 -114 29 -65 54 -120 56 -122 4 -4 64 19 64 25
0 2 -31 71 -69 154 -38 82 -68 150 -66 150 1 0 195 -315 431 -700 236 -385
433 -700 438 -700 10 0 356 187 370 200 5 5 -82 122 -197 267 l-206 258 142 3
142 3 277 452 c385 626 484 786 492 794 10 10 -9 -37 -34 -86 -11 -22 -20 -43
-20 -45 0 -7 61 -39 65 -34 1 2 26 56 55 120 30 65 55 117 56 115 3 -2 -45
-186 -61 -236 -4 -15 1 -21 27 -30 17 -6 35 -8 38 -4 4 5 31 100 61 213 l54
205 3 -237 2 -238 35 0 35 0 1 208 1 207 50 -187 51 -188 26 6 c14 4 30 10 35
15 5 4 -5 58 -23 125 -17 64 -30 118 -28 121 2 2 28 -48 57 -111 l53 -115 28
15 c16 8 29 18 29 23 0 4 -23 57 -51 117 -54 115 -71 154 -65 154 1 0 193
-310 426 -690 l424 -690 284 0 c271 0 284 1 270 18 -18 21 -881 1096 -1296
1615 -167 207 -306 377 -310 376 -4 0 -122 -144 -262 -319 -237 -297 -256
-318 -271 -302 -13 14 -334 447 -1176 1590 -30 39 -57 72 -61 72 -4 0 -86 -98
-182 -217z"/>
</g>
</svg>
